<?xml version="1.0" encoding="UTF-8" standalone="no"?>
<!-- Created with Inkscape (http://www.inkscape.org/) -->

<svg
   xmlns:dc="http://purl.org/dc/elements/1.1/"
   xmlns:cc="http://creativecommons.org/ns#"
   xmlns:rdf="http://www.w3.org/1999/02/22-rdf-syntax-ns#"
   xmlns:svg="http://www.w3.org/2000/svg"
   xmlns="http://www.w3.org/2000/svg"
   xmlns:sodipodi="http://sodipodi.sourceforge.net/DTD/sodipodi-0.dtd"
   xmlns:inkscape="http://www.inkscape.org/namespaces/inkscape"
   id="svg2"
   version="1.1"
   inkscape:version="0.48.2 r9819"
   width="494.54025"
   height="331.24234"
   sodipodi:docname="You Win.svg">
  <metadata
     id="metadata8">
    <rdf:RDF>
      <cc:Work
         rdf:about="">
        <dc:format>image/svg+xml</dc:format>
        <dc:type
           rdf:resource="http://purl.org/dc/dcmitype/StillImage" />
        <dc:title></dc:title>
      </cc:Work>
    </rdf:RDF>
  </metadata>
  <defs
     id="defs6">
    <filter
       inkscape:collect="always"
       id="filter4033"
       color-interpolation-filters="sRGB">
      <feGaussianBlur
         inkscape:collect="always"
         stdDeviation="0.38456342"
         id="feGaussianBlur4035" />
    </filter>
    <filter
       inkscape:collect="always"
       id="filter4057"
       color-interpolation-filters="sRGB">
      <feGaussianBlur
         inkscape:collect="always"
         stdDeviation="0.62969378"
         id="feGaussianBlur4059" />
    </filter>
    <filter
       inkscape:collect="always"
       id="filter4089"
       color-interpolation-filters="sRGB">
      <feGaussianBlur
         inkscape:collect="always"
         stdDeviation="0.2579513"
         id="feGaussianBlur4091" />
    </filter>
  </defs>
  <sodipodi:namedview
     pagecolor="#ffffff"
     bordercolor="#666666"
     borderopacity="1"
     objecttolerance="10"
     gridtolerance="10"
     guidetolerance="10"
     inkscape:pageopacity="0"
     inkscape:pageshadow="2"
     inkscape:window-width="1024"
     inkscape:window-height="538"
     id="namedview4"
     showgrid="false"
     fit-margin-top="0"
     fit-margin-left="0"
     fit-margin-right="0"
     fit-margin-bottom="0"
     inkscape:zoom="0.91806794"
     inkscape:cx="402.38533"
     inkscape:cy="261.57862"
     inkscape:window-x="-8"
     inkscape:window-y="-8"
     inkscape:window-maximized="1"
     inkscape:current-layer="g4093" />
  <g
     inkscape:groupmode="layer"
     id="layer2"
     inkscape:label="top"
     transform="translate(-705.03838,-1211.9274)">
    <g
       id="g4180">
      <path
         inkscape:connector-curvature="0"
         id="path3783"
         d="m 936.34185,1213.997 c -2.83319,16.8704 -5.77647,33.8123 -11.66739,50.2295 -2.43979,6.4952 -5.30801,13.1866 -10.8584,18.5357 -2.92586,2.7308 -7.54363,4.7934 -12.23573,4.0169 -6.43561,-0.9229 -11.37919,-4.7098 -15.65235,-8.2883 -9.74397,-8.4779 -17.03372,-18.4493 -24.17053,-28.3275 -5.66374,-8.021 -10.94565,-16.2346 -16.06697,-24.4897 3.15319,17.7181 5.88988,35.5932 5.13737,53.5185 -0.42228,7.6622 -1.37271,15.5564 -5.72546,22.5388 -2.40212,3.7056 -6.83446,6.9957 -12.38794,7.3526 -7.12754,0.6044 -13.89291,-1.9813 -19.89997,-4.6674 -13.02048,-6.0499 -24.17308,-14.1622 -35.25198,-22.1415 -9.41759,-6.9218 -18.57677,-14.0561 -27.76536,-21.1661 11.04407,12.9132 21.68981,26.195 29.05906,40.6541 3.39628,6.8572 6.17465,14.2263 5.10068,21.6517 -0.80263,4.9174 -4.42259,9.6068 -10.10282,12.0039 -7.9969,3.5811 -17.55811,4.0338 -26.60435,4.0168 -13.4681,-0.1081 -26.78828,-1.7934 -40.01685,-3.622 14.04424,6.3313 28.12382,12.8357 40.35116,21.1863 4.65615,3.2785 9.41211,6.9855 11.11911,11.8269 0.8865,2.9985 -0.76899,6.2083 -3.88466,8.0546 -5.4561,3.5656 -12.50606,5.0594 -19.15145,6.7362 -10.19226,2.3888 -20.71621,4.0357 -30.44002,7.4553 15.31934,1.6794 30.80559,3.5085 45.3257,7.7948 5.55832,1.7315 11.43899,3.9233 14.66949,8.0393 2.06607,2.8754 1.36671,6.5159 -0.88928,9.1871 -4.16054,5.3526 -10.83651,9.1161 -17.14339,12.8301 -10.58348,5.987 -21.86664,11.1617 -32.79576,16.7534 13.87771,-0.4839 27.97921,-0.8412 41.64338,1.4176 5.67601,0.9966 11.83341,2.6628 15.18925,6.6109 2.76439,3.539 1.73094,8.006 -0.38391,11.5806 -3.81672,6.867 -10.13238,12.7251 -15.88303,18.6971 -1.97905,1.992 -3.9783,3.9752 -5.91786,5.9887 9.98694,-5.0925 20.21744,-10.1659 31.65243,-13.0432 4.57904,-1.102 10.01354,-1.8315 14.32851,0.2389 4.1976,2.2468 5.08786,6.5626 5.02131,10.2527 -0.0669,8.1854 -3.01256,16.1152 -5.4852,24.007 -3.51336,10.4723 -7.69862,20.8384 -9.8061,31.5538 12.6743,-19.9222 26.14701,-39.6537 42.89383,-57.7148 8.55841,-9.0595 17.96698,-17.9415 30.10401,-24.2232 6.94292,-3.5282 15.60254,-5.9072 23.91944,-4.2644 8.49606,1.6814 15.00184,6.7585 19.78503,12.2373 6.35607,7.1404 10.56365,15.274 14.21998,23.4502 2.29375,-14.1827 5.31654,-28.5863 13.39246,-41.5718 4.21196,-6.6647 10.44306,-13.0191 19.38324,-16.0832 8.97914,-3.0431 19.34542,-2.0265 28.22909,0.6858 14.11113,4.1788 26.27988,11.4022 37.81888,18.8523 4.96,3.2737 9.7883,6.6808 14.4939,10.1808 -0.3589,-14.002 -0.058,-28.2406 4.6922,-41.8292 2.4925,-6.9221 6.6271,-13.9586 14.2829,-18.3084 6.7569,-3.7571 15.6541,-4.3534 23.6092,-3.0051 12.4449,1.9474 23.7192,6.8096 34.4891,11.8572 10.1312,4.8509 19.8283,10.2508 29.3708,15.7933 -8.339,-10.4769 -16.0435,-21.5176 -19.4502,-33.6524 -1.8727,-6.9853 -1.7285,-14.7019 2.9875,-21.0138 4.9819,-6.6651 13.9682,-10.8043 23.1034,-13.2866 15.2612,-4.1842 31.5551,-5.2628 47.6106,-6.0697 3.2324,-0.1432 6.4668,-0.2613 9.7021,-0.3548 -17.3116,-2.0709 -34.7102,-4.7651 -50.7965,-10.2919 -8.7,-3.0584 -17.3326,-7.2745 -22.1364,-13.8925 -3.5146,-5.0445 -3.6646,-11.2106 -1.2197,-16.5638 3.6216,-8.5424 11.0899,-15.7114 18.7558,-22.2743 13.2598,-11.168 28.6095,-20.7096 44.1305,-29.9164 -16.0752,6.6804 -32.0909,13.6127 -49.2325,18.5073 -6.8592,1.8752 -14.1782,3.5893 -21.5207,2.7827 -4.2045,-0.5632 -8.0867,-2.8762 -9.2203,-6.1526 -2.0515,-4.9439 -0.7405,-10.2483 0.6485,-15.1893 3.884,-12.4626 10.8366,-24.1679 17.8283,-35.7286 0.8429,-1.3679 1.7011,-2.721 2.5645,-4.0817 -14.5405,13.9469 -29.4691,27.76 -46.6755,39.7717 -7.6218,5.2111 -15.7818,10.3017 -25.4713,12.9304 -5.0407,1.3097 -11.1661,1.3525 -15.4372,-1.4163 -5.2904,-3.3272 -7.3765,-8.6968 -8.7189,-13.6913 -2.7494,-11.0833 -2.0441,-22.4685 -1.1317,-33.6731 0.3955,-4.216 0.9098,-8.4249 1.5146,-12.6256 -6.8804,14.0695 -14.3316,28.0791 -24.9729,40.6885 -4.9098,5.6763 -10.61913,11.2567 -18.58761,14.4411 -5.07471,1.9299 -11.34431,2.0499 -16.30092,-0.1976 -7.53868,-3.1876 -12.46052,-8.9523 -16.66866,-14.5813 -8.17012,-11.3377 -13.39417,-23.7788 -18.17838,-36.1906 -0.64903,-1.7298 -1.2968,-3.4575 -1.90692,-5.1994 -0.10478,0.6271 -0.20951,1.2541 -0.31426,1.881 z"
         style="fill:#000000;stroke:#000000;stroke-width:0.37724543;stroke-linecap:round;stroke-linejoin:round;stroke-miterlimit:4;stroke-opacity:1;stroke-dasharray:none;stroke-dashoffset:0" />
      <path
         style="fill:#000000;stroke:#000000;stroke-width:0.33546576;stroke-linecap:round;stroke-linejoin:round;stroke-miterlimit:4;stroke-opacity:1;stroke-dasharray:none;stroke-dashoffset:0"
         d="m 964.22924,1244.828 c -2.51942,15.0019 -5.13674,30.0675 -10.37524,44.6665 -2.16958,5.7759 -4.72015,11.7262 -9.65583,16.4828 -2.60184,2.4284 -6.70818,4.2626 -10.88064,3.5721 -5.72287,-0.8205 -10.11895,-4.1882 -13.91887,-7.3703 -8.66483,-7.5389 -15.14724,-16.4061 -21.49365,-25.1903 -5.03649,-7.1327 -9.73344,-14.4366 -14.28757,-21.7775 2.80397,15.7559 5.23758,31.6513 4.56841,47.5914 -0.37551,6.8137 -1.22068,13.8335 -5.09137,20.0427 -2.13609,3.2951 -6.07755,6.2208 -11.01599,6.5382 -6.33816,0.5375 -12.35428,-1.7617 -17.69605,-4.1504 -11.57847,-5.3798 -21.49594,-12.5938 -31.34786,-19.6894 -8.37459,-6.1552 -16.5194,-12.4993 -24.69036,-18.8219 9.82095,11.4831 19.28768,23.2939 25.84079,36.1515 3.02014,6.0979 5.4908,12.6508 4.53579,19.254 -0.71374,4.3728 -3.9328,8.5427 -8.98395,10.6744 -7.11125,3.1845 -15.61356,3.5871 -23.65793,3.5719 -11.97652,-0.096 -23.8215,-1.5948 -35.58501,-3.2209 12.48885,5.6302 25.00911,11.4143 35.88229,18.84 4.14048,2.9154 8.36972,6.2118 9.88769,10.5171 0.78831,2.6664 -0.68384,5.5207 -3.45445,7.1626 -4.85183,3.1706 -11.12102,4.4991 -17.03044,5.9901 -9.06348,2.1242 -18.42191,3.5888 -27.06881,6.6296 13.62273,1.4935 27.3939,3.1199 40.3059,6.9316 4.94276,1.5397 10.17214,3.4889 13.04487,7.149 1.83725,2.5569 1.21534,5.7943 -0.79079,8.1696 -3.69977,4.7597 -9.63638,8.1064 -15.24478,11.4091 -9.41137,5.324 -19.44492,9.9256 -29.16365,14.898 12.34077,-0.4303 24.88054,-0.748 37.03141,1.2606 5.0474,0.8862 10.52286,2.3679 13.50704,5.8788 2.45824,3.147 1.53924,7.1194 -0.34139,10.298 -3.39402,6.1065 -9.01022,11.3159 -14.12399,16.6264 -1.75987,1.7714 -3.5377,3.535 -5.26247,5.3254 8.88091,-4.5285 17.97839,-9.04 28.14695,-11.5986 4.07192,-0.9799 8.90455,-1.6287 12.74164,0.2125 3.73271,1.9979 4.52439,5.8358 4.4652,9.1172 -0.0595,7.2788 -2.67892,14.3304 -4.87772,21.3483 -3.12425,9.3124 -6.84599,18.5306 -8.72007,28.0592 11.27062,-17.7159 23.25125,-35.2621 38.14336,-51.323 7.61058,-8.0561 15.97715,-15.9545 26.77001,-21.5405 6.17401,-3.1374 13.87458,-5.253 21.27039,-3.7921 7.55512,1.4953 13.34039,6.01 17.59385,10.882 5.65214,6.3497 9.39373,13.5825 12.64512,20.8531 2.03972,-12.6119 4.72774,-25.4204 11.90925,-36.9676 3.74549,-5.9267 9.28651,-11.5773 17.23657,-14.3021 7.9847,-2.706 17.20291,-1.8021 25.10281,0.6099 12.5483,3.7159 23.3694,10.1394 33.6304,16.7643 4.4107,2.9112 8.7042,5.941 12.8886,9.0533 -0.3191,-12.4512 -0.052,-25.113 4.1726,-37.1966 2.2164,-6.1555 5.8931,-12.4127 12.7011,-16.2809 6.0086,-3.3409 13.9204,-3.8711 20.9944,-2.6722 11.0668,1.7318 21.0924,6.0555 30.6695,10.5441 9.0091,4.3136 17.6324,9.1154 26.118,14.0441 -7.4154,-9.3165 -14.2666,-19.1344 -17.2961,-29.9254 -1.6652,-6.2116 -1.5371,-13.0737 2.6568,-18.6866 4.4301,-5.9268 12.4211,-9.6076 20.5446,-11.815 13.5711,-3.7207 28.0604,-4.6799 42.3377,-5.3974 2.8745,-0.1275 5.7506,-0.2324 8.6277,-0.3156 -15.3944,-1.8416 -30.8661,-4.2373 -45.1708,-9.152 -7.7365,-2.7198 -15.4131,-6.4689 -19.6849,-12.354 -3.1254,-4.4858 -3.2587,-9.969 -1.0846,-14.7293 3.2205,-7.5964 9.8618,-13.9714 16.6786,-19.8075 11.7913,-9.9312 25.441,-18.416 39.243,-26.6031 -14.2948,5.9405 -28.5367,12.1051 -43.78,16.4575 -6.0995,1.6676 -12.6079,3.1918 -19.1372,2.4745 -3.7389,-0.5007 -7.1912,-2.5576 -8.1993,-5.4712 -1.8242,-4.3963 -0.6584,-9.1133 0.5768,-13.507 3.4538,-11.0823 9.6364,-21.4913 15.8538,-31.7717 0.7496,-1.2164 1.5127,-2.4197 2.2804,-3.6296 -12.9301,12.4023 -26.2053,24.6856 -41.5061,35.367 -6.7778,4.634 -14.0341,9.1607 -22.6504,11.4984 -4.4825,1.1645 -9.9295,1.2026 -13.7275,-1.2594 -4.7045,-2.9588 -6.5596,-7.7337 -7.7533,-12.1751 -2.445,-9.8559 -1.8178,-19.9802 -1.0064,-29.9439 0.3518,-3.7491 0.809,-7.4918 1.3468,-11.2273 -6.1183,12.5113 -12.7443,24.9694 -22.2071,36.1823 -4.366,5.0477 -9.443,10.01 -16.529,12.8418 -4.5128,1.7161 -10.088,1.8228 -14.4956,-0.1758 -6.70379,-2.8346 -11.08055,-7.9608 -14.82264,-12.9663 -7.26529,-10.0821 -11.91077,-21.1454 -16.16514,-32.1826 -0.57714,-1.5382 -1.15317,-3.0746 -1.69573,-4.6236 -0.0932,0.5577 -0.1863,1.1153 -0.27945,1.6728 z"
         id="path4123"
         inkscape:connector-curvature="0" />
      <g
         transform="matrix(1.4613102,0,0,1.4613102,-325.2414,-559.07449)"
         id="g4093">
        <g
           transform="matrix(3.2715437,-0.9811842,1.0333272,3.2871081,-2640.0345,-2278.0168)"
           inkscape:transform-center-x="-1.6097781"
           style="font-size:24px;font-style:oblique;font-variant:normal;font-weight:bold;font-stretch:normal;text-align:start;line-height:80.00000119%;letter-spacing:0px;word-spacing:0px;writing-mode:lr-tb;text-anchor:start;opacity:0.24038463;fill:#56e100;fill-opacity:1;stroke:none;filter:url(#filter4057);font-family:League Gothic;-inkscape-font-specification:League Gothic Bold Oblique"
           id="flowRoot4045">
          <path
             d="m 633.22886,1282.5625 -2.54397,0 0.85399,10.1279 -1.32467,7.5119 c 0.032,0 0.256,0 0.672,0 0.41599,0 0.83198,0 1.24798,0 0.41599,0 0.63999,0 0.67199,0 l 1.32467,-7.5119 4.42594,-10.1279 -2.54397,0 -2.29054,5.64 -0.10162,0.168 -0.048,0 -0.0424,-0.168 z"
             style=""
             id="path4205" />
          <path
             d="m 644.97765,1290.2664 c 0.0271,-0.042 0.0419,-0.3342 0.0445,-0.8773 0.003,-0.5431 -0.1695,-1.0862 -0.51623,-1.6293 -0.34675,-0.5431 -1.03057,-0.8355 -2.05148,-0.8773 -1.02796,0.043 -1.8104,0.3413 -2.34731,0.896 -0.53692,0.5546 -0.9005,1.1093 -1.09075,1.664 -0.19026,0.5546 -0.27937,0.8533 -0.26733,0.8959 l -1.16385,6.6 c -0.0271,0.043 -0.0433,0.3413 -0.0487,0.8959 -0.005,0.5547 0.1626,1.1094 0.50389,1.664 0.3413,0.5547 1.0184,0.8533 2.03131,0.896 1.03564,-0.042 1.82261,-0.3342 2.3609,-0.8773 0.53828,-0.5431 0.9019,-1.0862 1.09086,-1.6293 0.18895,-0.5431 0.27726,-0.8356 0.26493,-0.8773 z m -2.29266,0.072 -1.16385,6.6 c 0.0123,0.055 -0.0525,0.275 -0.19438,0.66 -0.1419,0.3849 -0.43469,0.6049 -0.87838,0.6599 -0.4128,-0.055 -0.621,-0.275 -0.62461,-0.6599 -0.004,-0.385 0.0102,-0.605 0.0414,-0.66 l 1.16385,-6.6 c -0.0116,-0.056 0.0529,-0.2799 0.1935,-0.6719 0.14062,-0.392 0.42711,-0.616 0.85949,-0.672 0.42411,0.056 0.63861,0.28 0.64349,0.672 0.005,0.392 -0.009,0.616 -0.0405,0.6719 z"
             style=""
             id="path4207" />
          <path
             d="m 648.90222,1298.0423 c -0.15132,0.01 -0.2775,-0.025 -0.37854,-0.099 -0.10104,-0.073 -0.133,-0.2324 -0.0959,-0.4769 l 1.83253,-10.3919 -2.42397,0 -1.89601,10.7518 c -0.10719,0.5795 -0.0645,1.1425 0.12815,1.689 0.19263,0.5465 0.60695,0.8395 1.24298,0.879 0.44569,-0.046 0.89013,-0.2475 1.33332,-0.603 0.44318,-0.3555 0.73091,-0.5865 0.86319,-0.693 l -0.19468,1.104 2.42397,0 2.315,-13.1278 -2.42397,0 c -0.15012,0.8512 -0.28205,1.5994 -0.39579,2.2444 -0.11375,0.645 -0.27358,1.5514 -0.47948,2.7191 -0.20592,1.1677 -0.52219,2.9611 -0.94879,5.3804 -0.008,0.026 -0.0979,0.13 -0.27102,0.3119 -0.1731,0.182 -0.38343,0.286 -0.63101,0.312 z"
             style=""
             id="path4209" />
          <path
             d="m 665.04022,1291.8504 0.32598,-1.032 0.096,0 -0.038,1.032 -0.27281,8.3519 2.01598,0 5.48661,-17.6398 -2.39997,0 -2.64867,9.1679 -0.14957,0.576 -0.192,0 0.0296,-0.576 0.5127,-9.1679 c -0.0885,10e-5 -0.4035,10e-5 -0.94498,0 -0.54151,10e-5 -0.8505,10e-5 -0.92699,0 l -2.72068,9.1679 -0.17357,0.576 -0.192,0 0.0536,-0.576 0.5847,-9.1679 -2.39997,0 -0.73467,17.6398 2.01597,0 z"
             style=""
             id="path4211" />
          <path
             d="m 673.86833,1300.2023 2.315,-13.1278 -2.42397,0 -2.315,13.1278 z m 0.25923,-15.2158 2.42397,0 0.42745,-2.424 -2.42397,0 z"
             style=""
             id="path4213" />
          <path
             d="m 681.56317,1289.2345 c 0.15132,-0.01 0.2775,0.025 0.37854,0.099 0.10103,0.073 0.13299,0.2325 0.0959,0.477 l -1.83253,10.3918 2.42397,0 1.89601,-10.7518 c 0.10718,-0.5795 0.0645,-1.1425 -0.12815,-1.689 -0.19264,-0.5465 -0.60696,-0.8395 -1.24298,-0.879 -0.4457,0.047 -0.89014,0.2475 -1.33332,0.603 -0.44319,0.3555 -0.73092,0.5865 -0.86319,0.693 l 0.19468,-1.104 -2.42397,0 -2.315,13.1278 2.42397,0 c 0.15011,-0.8512 0.28204,-1.5994 0.39579,-2.2444 0.11374,-0.645 0.27357,-1.5514 0.47949,-2.7191 0.2059,-1.1677 0.52217,-2.9611 0.94879,-5.3803 0.008,-0.026 0.0979,-0.13 0.27101,-0.312 0.17309,-0.182 0.38342,-0.286 0.63101,-0.312 z"
             style=""
             id="path4215" />
          <path
             d="m 689.53924,1300.2023 2.51996,0 0.46978,-2.6639 -2.51997,0 z m 1.34196,-4.7519 1.51198,0 2.92067,-12.8879 -2.80797,0 z"
             style=""
             id="path4217" />
          <path
             d="m 694.74236,1300.2023 2.51997,0 0.46977,-2.6639 -2.51997,0 z m 1.34196,-4.7519 1.51199,0 2.92066,-12.8879 -2.80796,0 z"
             style=""
             id="path4219" />
        </g>
        <path
           style="fill:#e5d5ff;fill-opacity:1;stroke:#000000;stroke-width:0.25815561;stroke-linecap:round;stroke-linejoin:round;stroke-miterlimit:4;stroke-opacity:1;stroke-dasharray:none;stroke-dashoffset:0"
           d="m 864.59079,1222.8101 c -2.14573,11.5551 -4.49238,23.2647 -10.4306,34.0629 -2.08212,3.4398 -5.16354,6.9172 -9.95315,8.2503 -4.07679,1.0241 -8.56322,-0.05 -11.83932,-2.0572 -5.90296,-3.2951 -9.92181,-8.1025 -14.0528,-12.6545 -4.44491,-5.208 -8.31092,-10.7031 -12.01113,-16.2507 1.5242,11.1942 2.50495,22.5987 0.0149,33.753 -1.12327,4.1876 -3.29465,8.5692 -7.92122,11.1526 -3.99028,2.1006 -9.29659,2.1201 -13.68524,0.8108 -7.1238,-1.8398 -13.0456,-5.5811 -18.92072,-9.0887 -5.24851,-3.2987 -10.18008,-6.8795 -15.04305,-10.5157 5.12513,7.2635 9.74093,14.955 11.25864,23.2273 0.64196,4.5532 -0.56873,9.5929 -4.95766,12.8749 -4.51191,3.3953 -10.93576,4.5713 -17.01978,4.9345 -6.4257,0.4129 -12.87787,-0.024 -19.26429,-0.5938 7.8566,3.9217 15.68306,8.1694 21.44068,13.9611 2.19593,2.4687 3.51185,5.8003 1.88052,8.6803 -1.87092,3.3162 -6.23584,5.1503 -10.38175,6.3972 -5.33612,1.7008 -10.96588,2.7073 -16.50373,3.9257 9.35117,1.2658 18.85745,2.9639 27.05021,6.8313 3.37474,1.7938 6.15975,4.8169 5.69532,8.1285 -0.46957,3.7779 -3.91285,6.799 -7.37749,9.2377 -6.26683,4.4754 -13.60089,7.8954 -20.70565,11.5018 8.71323,-0.035 17.73076,0.3268 25.77822,3.1577 3.89564,1.5837 7.01323,4.7842 6.7397,8.3248 -0.10786,4.3838 -3.32024,8.18 -6.28606,11.7384 -0.45567,0.5145 -0.91599,1.0264 -1.38704,1.5327 5.14219,-2.062 10.69957,-3.8864 16.57696,-3.8798 3.95622,0.2363 7.75951,2.3483 8.79997,5.3992 1.80763,4.1915 0.57196,8.6587 -0.28547,12.8928 -1.0323,4.2321 -2.47053,8.3992 -3.9436,12.5532 8.43754,-12.0226 17.76796,-23.8225 29.81601,-33.8749 5.52327,-4.435 12.02385,-8.4645 19.86909,-10.0066 6.50348,-1.1466 13.64172,0.4366 18.40715,4.0539 5.40912,3.7028 8.94559,8.7426 11.93284,13.7689 1.91505,-8.9032 4.98793,-17.9109 11.5485,-25.4683 4.15625,-4.5413 10.60329,-8.1423 17.92026,-8.5709 7.94579,-0.5886 15.6683,1.7024 22.49022,4.6559 8.74046,3.7417 16.50562,8.7238 23.90244,13.9003 -0.0205,-9.8135 0.85879,-19.8704 5.66438,-29.0493 2.5884,-4.6938 7.19742,-9.05 13.60751,-10.7072 6.40414,-1.7213 13.45131,-0.8701 19.68423,0.8849 10.01617,2.7544 18.99776,7.2267 27.69935,11.8884 -4.40608,-6.7088 -7.94638,-14.0277 -7.84689,-21.667 0.26127,-5.7981 3.91367,-11.5436 10.12095,-14.8394 7.1963,-4.1421 16.1283,-5.7933 24.7998,-6.9815 1.4927,-0.1948 2.9917,-0.3587 4.4923,-0.511 -9.2005,-1.9078 -18.4023,-4.5776 -25.81921,-9.338 -4.76453,-3.2772 -8.11437,-8.1485 -7.58278,-13.2037 0.40371,-5.6277 4.11606,-10.6995 8.31014,-15.1417 4.64595,-4.8715 10.17285,-9.1652 15.91815,-13.2427 -7.0172,2.4723 -14.28881,4.763 -22.0172,5.3519 -4.21486,0.1881 -8.92769,-0.865 -11.3102,-3.757 -2.77765,-3.2897 -2.4712,-7.4664 -1.65927,-11.1838 1.16548,-5.2324 3.58443,-10.2184 6.00551,-15.1646 -8.84148,7.8397 -18.25047,15.4558 -29.46746,21.2604 -4.62477,2.2266 -10.09249,4.044 -15.64214,3.3225 -4.62214,-0.7382 -8.31831,-3.6142 -9.96995,-6.9806 -2.93799,-5.1709 -3.22042,-10.9297 -3.57452,-16.4965 -0.0694,-2.3139 0,-4.629 0.12004,-6.9412 -4.59465,7.9115 -9.94902,15.7425 -17.81849,22.0007 -3.92699,2.8995 -9.25136,5.1741 -14.83558,4.6446 -5.6754,-0.5641 -10.27646,-3.6628 -13.59308,-7.1131 -5.16363,-5.2276 -8.41562,-11.3847 -11.54687,-17.4628 -1.02173,-2.1246 -1.98388,-4.2584 -2.87224,-6.4185 l -0.0182,0.099 z"
           id="path3865"
           inkscape:connector-curvature="0" />
        <path
           style="fill:#000000;stroke:#000000;stroke-width:0.25815561;stroke-linecap:round;stroke-linejoin:round;stroke-miterlimit:4;stroke-opacity:1;stroke-dasharray:none;stroke-dashoffset:0"
           d="m 865.59375,1237.1875 c -2.91804,11.7584 -6.8501,26.3103 -19.125,31.4375 -12.84718,3.8734 -24.01123,-6.7301 -31.4375,-15.9375 -4.16981,-6.9732 -3.25964,-1.0745 -3.24438,3.6872 0.29587,11.2789 -4.20344,25.9994 -16.97437,28.0315 -11.49107,1.7397 -22.08871,-4.6327 -31.4375,-10.4062 4.4676,9.0164 3.85701,22.3201 -6.375,27.0938 -6.01295,3.4439 -13.09433,4.2254 -19.90625,4.3124 7.14487,3.7444 15.45115,13.0119 9.625,21.125 -2.55929,3.5843 -6.7736,5.4398 -10.84375,6.75 8.1497,1.461 19.66729,7.0002 17.75,16.9688 -1.85983,8.0114 -10.49423,11.9891 -16.46875,15.75 9.1083,0.2012 22.09853,5.4406 21.15625,16.3125 0.28786,1.9772 -3.12369,5.7437 0.8125,4 9.10288,-1.7992 19.53935,5.4435 17.84375,15.3437 1.05966,1.0579 5.38312,-6.0031 7.9375,-8.0312 10.89356,-11.569 26.30273,-23.5003 43.21875,-20.1562 7.21045,1.5877 13.54182,6.5854 18.15625,11.75 4.31372,-15.0743 17.50559,-29.6643 34.34354,-28.2609 14.42519,0.4252 27.48152,7.5367 39.28146,15.2296 0.52927,-14.4479 6.20985,-32.204 21.90625,-36.1875 13.41066,-3.4019 27.06667,1.7264 39.0625,7.3438 -4.65053,-10.4512 -2.10596,-24.4544 8.625,-30.0938 3.97342,-2.8272 10.647,-4.4558 13.8438,-5.8438 -10.1734,-3.3919 -21.47119,-12.7218 -18.2813,-24.6874 1.5659,-6.4185 5.88971,-11.7001 10.53125,-16.2188 -8.94165,2.3386 -21.38409,-1.4861 -22.25,-12 -0.32252,-2.872 0.12962,-5.7597 0.84375,-8.5312 -11.03234,8.446 -24.62279,18.4422 -39.34375,14.75 -8.41362,-2.9748 -12.56411,-12.2916 -13.34375,-20.5 -7.39044,10.8513 -21.33119,21.5445 -35.1875,16.0937 -9.41248,-3.8197 -15.59836,-12.5945 -20.21875,-21.2187 -0.16667,0.6979 -0.33333,1.3958 -0.5,2.0937 z"
           id="path3957"
           inkscape:connector-curvature="0" />
        <path
           style="fill:#d7ffbd;fill-opacity:1;stroke:#000000;stroke-width:0.25815561;stroke-linecap:round;stroke-linejoin:round;stroke-miterlimit:4;stroke-opacity:1;stroke-dasharray:none;stroke-dashoffset:0"
           d="m 866.375,1242.2188 c -3.04519,12.0888 -9.29035,27.1233 -23.25,29.125 -12.2964,1.4082 -22.60927,-9.0468 -29.375,-16.8126 0.88568,12.5639 -4.04677,28.9495 -18.03125,31.75 -10.03185,2.1999 -20.85092,-3.4114 -28.46875,-7.2812 3.0871,10.2471 -2.09513,22.4046 -12.70289,25.4818 -3.6112,1.537 -7.52386,2.207 -11.39086,2.6432 7.10356,4.9788 10.7628,16.4605 3.3125,22.75 -2.84064,2.2025 -5.90725,3.346 -0.78125,4.5938 8.4375,3.1125 13.54596,14.1198 7.46875,21.6874 -2.53606,3.6743 -6.26775,6.2458 -10,8.5938 9.08785,1.3941 19.23087,9.1948 16.9375,19.375 8.31371,-0.9359 17.51129,4.6295 18.875,13.2188 11.96561,-14.1843 28.83528,-29.0317 48.78125,-26 6.79509,1.2731 12.75757,5.3103 17.65625,10.0624 5.41487,-15.5323 20.77049,-29.1401 38.09375,-26.2812 12.57873,1.0891 24.11278,6.9215 34.625,13.5312 1.01672,-14.7013 8.61398,-31.9145 24.5625,-34.9062 11.88447,-2.553 24.01268,1.0695 34.8125,5.9062 -3.2604,-11.546 2.32123,-24.9696 13.59375,-29.6874 1.49819,-1.3733 7.93201,-2.0366 5.5,-3.3126 -9.5776,-4.7722 -17.48393,-16.2063 -12.6875,-27 1.33805,-3.8723 3.89279,-7.4987 6.375,-10.5 -9.9408,0.6893 -20.60524,-7.4065 -19,-18.0312 -1.8121,0.2346 -5.54518,3.9238 -8.25,5.1562 -10.18489,6.504 -25.71742,11.4934 -35.6875,2 -3.61892,-3.5216 -5.90245,-8.2703 -7.03125,-13.1562 -8.4728,10.8792 -24.36525,19.3258 -37.5625,11.7188 -6.83799,-3.6902 -11.94296,-9.861 -15.90625,-16.4063 l -0.25449,0.9671 -0.21426,0.8142 z"
           id="path3971"
           inkscape:connector-curvature="0" />
        <g
           transform="matrix(3.2715437,-0.99747236,1.0333272,3.3416758,-2632.1391,-2344.1824)"
           inkscape:transform-center-x="3.3873219"
           inkscape:transform-center-y="4.3875063e-005"
           style="font-size:24px;font-style:oblique;font-variant:normal;font-weight:bold;font-stretch:normal;text-align:start;line-height:80.00000119%;letter-spacing:0px;word-spacing:0px;writing-mode:lr-tb;text-anchor:start;opacity:0.51442309;fill:#ffcc00;fill-opacity:1;stroke:none;filter:url(#filter4089);font-family:League Gothic;-inkscape-font-specification:League Gothic Bold Oblique"
           id="flowRoot4077">
          <path
             d="m 633.22886,1282.5625 -2.54397,0 0.85399,10.1279 -1.32467,7.5119 c 0.032,0 0.256,0 0.672,0 0.41599,0 0.83198,0 1.24798,0 0.41599,0 0.63999,0 0.67199,0 l 1.32467,-7.5119 4.42594,-10.1279 -2.54397,0 -2.29054,5.64 -0.10162,0.168 -0.048,0 -0.0424,-0.168 z"
             style=""
             id="path4222" />
          <path
             d="m 644.97765,1290.2664 c 0.0271,-0.042 0.0419,-0.3342 0.0445,-0.8773 0.003,-0.5431 -0.1695,-1.0862 -0.51623,-1.6293 -0.34675,-0.5431 -1.03057,-0.8355 -2.05148,-0.8773 -1.02796,0.043 -1.8104,0.3413 -2.34731,0.896 -0.53692,0.5546 -0.9005,1.1093 -1.09075,1.664 -0.19026,0.5546 -0.27937,0.8533 -0.26733,0.8959 l -1.16385,6.6 c -0.0271,0.043 -0.0433,0.3413 -0.0487,0.8959 -0.005,0.5547 0.1626,1.1094 0.50389,1.664 0.3413,0.5547 1.0184,0.8533 2.03131,0.896 1.03564,-0.042 1.82261,-0.3342 2.3609,-0.8773 0.53828,-0.5431 0.9019,-1.0862 1.09086,-1.6293 0.18895,-0.5431 0.27726,-0.8356 0.26493,-0.8773 z m -2.29266,0.072 -1.16385,6.6 c 0.0123,0.055 -0.0525,0.275 -0.19438,0.66 -0.1419,0.3849 -0.43469,0.6049 -0.87838,0.6599 -0.4128,-0.055 -0.621,-0.275 -0.62461,-0.6599 -0.004,-0.385 0.0102,-0.605 0.0414,-0.66 l 1.16385,-6.6 c -0.0116,-0.056 0.0529,-0.2799 0.1935,-0.6719 0.14062,-0.392 0.42711,-0.616 0.85949,-0.672 0.42411,0.056 0.63861,0.28 0.64349,0.672 0.005,0.392 -0.009,0.616 -0.0405,0.6719 z"
             style=""
             id="path4224" />
          <path
             d="m 648.90222,1298.0423 c -0.15132,0.01 -0.2775,-0.025 -0.37854,-0.099 -0.10104,-0.073 -0.133,-0.2324 -0.0959,-0.4769 l 1.83253,-10.3919 -2.42397,0 -1.89601,10.7518 c -0.10719,0.5795 -0.0645,1.1425 0.12815,1.689 0.19263,0.5465 0.60695,0.8395 1.24298,0.879 0.44569,-0.046 0.89013,-0.2475 1.33332,-0.603 0.44318,-0.3555 0.73091,-0.5865 0.86319,-0.693 l -0.19468,1.104 2.42397,0 2.315,-13.1278 -2.42397,0 c -0.15012,0.8512 -0.28205,1.5994 -0.39579,2.2444 -0.11375,0.645 -0.27358,1.5514 -0.47948,2.7191 -0.20592,1.1677 -0.52219,2.9611 -0.94879,5.3804 -0.008,0.026 -0.0979,0.13 -0.27102,0.3119 -0.1731,0.182 -0.38343,0.286 -0.63101,0.312 z"
             style=""
             id="path4226" />
          <path
             d="m 665.04022,1291.8504 0.32598,-1.032 0.096,0 -0.038,1.032 -0.27281,8.3519 2.01598,0 5.48661,-17.6398 -2.39997,0 -2.64867,9.1679 -0.14957,0.576 -0.192,0 0.0296,-0.576 0.5127,-9.1679 c -0.0885,10e-5 -0.4035,10e-5 -0.94498,0 -0.54151,10e-5 -0.8505,10e-5 -0.92699,0 l -2.72068,9.1679 -0.17357,0.576 -0.192,0 0.0536,-0.576 0.5847,-9.1679 -2.39997,0 -0.73467,17.6398 2.01597,0 z"
             style=""
             id="path4228" />
          <path
             d="m 673.86833,1300.2023 2.315,-13.1278 -2.42397,0 -2.315,13.1278 z m 0.25923,-15.2158 2.42397,0 0.42745,-2.424 -2.42397,0 z"
             style=""
             id="path4230" />
          <path
             d="m 681.56317,1289.2345 c 0.15132,-0.01 0.2775,0.025 0.37854,0.099 0.10103,0.073 0.13299,0.2325 0.0959,0.477 l -1.83253,10.3918 2.42397,0 1.89601,-10.7518 c 0.10718,-0.5795 0.0645,-1.1425 -0.12815,-1.689 -0.19264,-0.5465 -0.60696,-0.8395 -1.24298,-0.879 -0.4457,0.047 -0.89014,0.2475 -1.33332,0.603 -0.44319,0.3555 -0.73092,0.5865 -0.86319,0.693 l 0.19468,-1.104 -2.42397,0 -2.315,13.1278 2.42397,0 c 0.15011,-0.8512 0.28204,-1.5994 0.39579,-2.2444 0.11374,-0.645 0.27357,-1.5514 0.47949,-2.7191 0.2059,-1.1677 0.52217,-2.9611 0.94879,-5.3803 0.008,-0.026 0.0979,-0.13 0.27101,-0.312 0.17309,-0.182 0.38342,-0.286 0.63101,-0.312 z"
             style=""
             id="path4232" />
          <path
             d="m 689.53924,1300.2023 2.51996,0 0.46978,-2.6639 -2.51997,0 z m 1.34196,-4.7519 1.51198,0 2.92067,-12.8879 -2.80797,0 z"
             style=""
             id="path4234" />
          <path
             d="m 694.74236,1300.2023 2.51997,0 0.46977,-2.6639 -2.51997,0 z m 1.34196,-4.7519 1.51199,0 2.92066,-12.8879 -2.80796,0 z"
             style=""
             id="path4236" />
        </g>
        <g
           transform="matrix(3.2715437,-0.9811842,1.0333272,3.2871081,-2636.4961,-2284.5523)"
           inkscape:transform-center-x="3.3873219"
           style="font-size:24px;font-style:oblique;font-variant:normal;font-weight:bold;font-stretch:normal;text-align:start;line-height:80.00000119%;letter-spacing:0px;word-spacing:0px;writing-mode:lr-tb;text-anchor:start;fill:#ffe6d5;fill-opacity:1;stroke:none;font-family:League Gothic;-inkscape-font-specification:League Gothic Bold Oblique"
           id="flowRoot4069">
          <path
             d="m 633.22886,1282.5625 -2.54397,0 0.85399,10.1279 -1.32467,7.5119 c 0.032,0 0.256,0 0.672,0 0.41599,0 0.83198,0 1.24798,0 0.41599,0 0.63999,0 0.67199,0 l 1.32467,-7.5119 4.42594,-10.1279 -2.54397,0 -2.29054,5.64 -0.10162,0.168 -0.048,0 -0.0424,-0.168 z"
             style=""
             id="path4239" />
          <path
             d="m 644.97765,1290.2664 c 0.0271,-0.042 0.0419,-0.3342 0.0445,-0.8773 0.003,-0.5431 -0.1695,-1.0862 -0.51623,-1.6293 -0.34675,-0.5431 -1.03057,-0.8355 -2.05148,-0.8773 -1.02796,0.043 -1.8104,0.3413 -2.34731,0.896 -0.53692,0.5546 -0.9005,1.1093 -1.09075,1.664 -0.19026,0.5546 -0.27937,0.8533 -0.26733,0.8959 l -1.16385,6.6 c -0.0271,0.043 -0.0433,0.3413 -0.0487,0.8959 -0.005,0.5547 0.1626,1.1094 0.50389,1.664 0.3413,0.5547 1.0184,0.8533 2.03131,0.896 1.03564,-0.042 1.82261,-0.3342 2.3609,-0.8773 0.53828,-0.5431 0.9019,-1.0862 1.09086,-1.6293 0.18895,-0.5431 0.27726,-0.8356 0.26493,-0.8773 z m -2.29266,0.072 -1.16385,6.6 c 0.0123,0.055 -0.0525,0.275 -0.19438,0.66 -0.1419,0.3849 -0.43469,0.6049 -0.87838,0.6599 -0.4128,-0.055 -0.621,-0.275 -0.62461,-0.6599 -0.004,-0.385 0.0102,-0.605 0.0414,-0.66 l 1.16385,-6.6 c -0.0116,-0.056 0.0529,-0.2799 0.1935,-0.6719 0.14062,-0.392 0.42711,-0.616 0.85949,-0.672 0.42411,0.056 0.63861,0.28 0.64349,0.672 0.005,0.392 -0.009,0.616 -0.0405,0.6719 z"
             style=""
             id="path4241" />
          <path
             d="m 648.90222,1298.0423 c -0.15132,0.01 -0.2775,-0.025 -0.37854,-0.099 -0.10104,-0.073 -0.133,-0.2324 -0.0959,-0.4769 l 1.83253,-10.3919 -2.42397,0 -1.89601,10.7518 c -0.10719,0.5795 -0.0645,1.1425 0.12815,1.689 0.19263,0.5465 0.60695,0.8395 1.24298,0.879 0.44569,-0.046 0.89013,-0.2475 1.33332,-0.603 0.44318,-0.3555 0.73091,-0.5865 0.86319,-0.693 l -0.19468,1.104 2.42397,0 2.315,-13.1278 -2.42397,0 c -0.15012,0.8512 -0.28205,1.5994 -0.39579,2.2444 -0.11375,0.645 -0.27358,1.5514 -0.47948,2.7191 -0.20592,1.1677 -0.52219,2.9611 -0.94879,5.3804 -0.008,0.026 -0.0979,0.13 -0.27102,0.3119 -0.1731,0.182 -0.38343,0.286 -0.63101,0.312 z"
             style=""
             id="path4243" />
          <path
             d="m 665.04022,1291.8504 0.32598,-1.032 0.096,0 -0.038,1.032 -0.27281,8.3519 2.01598,0 5.48661,-17.6398 -2.39997,0 -2.64867,9.1679 -0.14957,0.576 -0.192,0 0.0296,-0.576 0.5127,-9.1679 c -0.0885,10e-5 -0.4035,10e-5 -0.94498,0 -0.54151,10e-5 -0.8505,10e-5 -0.92699,0 l -2.72068,9.1679 -0.17357,0.576 -0.192,0 0.0536,-0.576 0.5847,-9.1679 -2.39997,0 -0.73467,17.6398 2.01597,0 z"
             style=""
             id="path4245" />
          <path
             d="m 673.86833,1300.2023 2.315,-13.1278 -2.42397,0 -2.315,13.1278 z m 0.25923,-15.2158 2.42397,0 0.42745,-2.424 -2.42397,0 z"
             style=""
             id="path4247" />
          <path
             d="m 681.56317,1289.2345 c 0.15132,-0.01 0.2775,0.025 0.37854,0.099 0.10103,0.073 0.13299,0.2325 0.0959,0.477 l -1.83253,10.3918 2.42397,0 1.89601,-10.7518 c 0.10718,-0.5795 0.0645,-1.1425 -0.12815,-1.689 -0.19264,-0.5465 -0.60696,-0.8395 -1.24298,-0.879 -0.4457,0.047 -0.89014,0.2475 -1.33332,0.603 -0.44319,0.3555 -0.73092,0.5865 -0.86319,0.693 l 0.19468,-1.104 -2.42397,0 -2.315,13.1278 2.42397,0 c 0.15011,-0.8512 0.28204,-1.5994 0.39579,-2.2444 0.11374,-0.645 0.27357,-1.5514 0.47949,-2.7191 0.2059,-1.1677 0.52217,-2.9611 0.94879,-5.3803 0.008,-0.026 0.0979,-0.13 0.27101,-0.312 0.17309,-0.182 0.38342,-0.286 0.63101,-0.312 z"
             style=""
             id="path4249" />
          <path
             d="m 689.53924,1300.2023 2.51996,0 0.46978,-2.6639 -2.51997,0 z m 1.34196,-4.7519 1.51198,0 2.92067,-12.8879 -2.80797,0 z"
             style=""
             id="path4251" />
          <path
             d="m 694.74236,1300.2023 2.51997,0 0.46977,-2.6639 -2.51997,0 z m 1.34196,-4.7519 1.51199,0 2.92066,-12.8879 -2.80796,0 z"
             style=""
             id="path4253" />
        </g>
        <g
           transform="matrix(3.2715437,-0.9811842,1.0333272,3.2871081,-2634.1391,-2285.6415)"
           inkscape:transform-center-x="3.3873219"
           style="font-size:24px;font-style:oblique;font-variant:normal;font-weight:bold;font-stretch:normal;text-align:start;line-height:80.00000119%;letter-spacing:0px;word-spacing:0px;writing-mode:lr-tb;text-anchor:start;fill:#000000;fill-opacity:1;stroke:none;font-family:League Gothic;-inkscape-font-specification:League Gothic Bold Oblique"
           id="flowRoot3985">
          <path
             d="m 633.22886,1282.5625 -2.54397,0 0.85399,10.1279 -1.32467,7.5119 c 0.032,0 0.256,0 0.672,0 0.41599,0 0.83198,0 1.24798,0 0.41599,0 0.63999,0 0.67199,0 l 1.32467,-7.5119 4.42594,-10.1279 -2.54397,0 -2.29054,5.64 -0.10162,0.168 -0.048,0 -0.0424,-0.168 z"
             style=""
             id="path4256" />
          <path
             d="m 644.97765,1290.2664 c 0.0271,-0.042 0.0419,-0.3342 0.0445,-0.8773 0.003,-0.5431 -0.1695,-1.0862 -0.51623,-1.6293 -0.34675,-0.5431 -1.03057,-0.8355 -2.05148,-0.8773 -1.02796,0.043 -1.8104,0.3413 -2.34731,0.896 -0.53692,0.5546 -0.9005,1.1093 -1.09075,1.664 -0.19026,0.5546 -0.27937,0.8533 -0.26733,0.8959 l -1.16385,6.6 c -0.0271,0.043 -0.0433,0.3413 -0.0487,0.8959 -0.005,0.5547 0.1626,1.1094 0.50389,1.664 0.3413,0.5547 1.0184,0.8533 2.03131,0.896 1.03564,-0.042 1.82261,-0.3342 2.3609,-0.8773 0.53828,-0.5431 0.9019,-1.0862 1.09086,-1.6293 0.18895,-0.5431 0.27726,-0.8356 0.26493,-0.8773 z m -2.29266,0.072 -1.16385,6.6 c 0.0123,0.055 -0.0525,0.275 -0.19438,0.66 -0.1419,0.3849 -0.43469,0.6049 -0.87838,0.6599 -0.4128,-0.055 -0.621,-0.275 -0.62461,-0.6599 -0.004,-0.385 0.0102,-0.605 0.0414,-0.66 l 1.16385,-6.6 c -0.0116,-0.056 0.0529,-0.2799 0.1935,-0.6719 0.14062,-0.392 0.42711,-0.616 0.85949,-0.672 0.42411,0.056 0.63861,0.28 0.64349,0.672 0.005,0.392 -0.009,0.616 -0.0405,0.6719 z"
             style=""
             id="path4258" />
          <path
             d="m 648.90222,1298.0423 c -0.15132,0.01 -0.2775,-0.025 -0.37854,-0.099 -0.10104,-0.073 -0.133,-0.2324 -0.0959,-0.4769 l 1.83253,-10.3919 -2.42397,0 -1.89601,10.7518 c -0.10719,0.5795 -0.0645,1.1425 0.12815,1.689 0.19263,0.5465 0.60695,0.8395 1.24298,0.879 0.44569,-0.046 0.89013,-0.2475 1.33332,-0.603 0.44318,-0.3555 0.73091,-0.5865 0.86319,-0.693 l -0.19468,1.104 2.42397,0 2.315,-13.1278 -2.42397,0 c -0.15012,0.8512 -0.28205,1.5994 -0.39579,2.2444 -0.11375,0.645 -0.27358,1.5514 -0.47948,2.7191 -0.20592,1.1677 -0.52219,2.9611 -0.94879,5.3804 -0.008,0.026 -0.0979,0.13 -0.27102,0.3119 -0.1731,0.182 -0.38343,0.286 -0.63101,0.312 z"
             style=""
             id="path4260" />
          <path
             d="m 665.04022,1291.8504 0.32598,-1.032 0.096,0 -0.038,1.032 -0.27281,8.3519 2.01598,0 5.48661,-17.6398 -2.39997,0 -2.64867,9.1679 -0.14957,0.576 -0.192,0 0.0296,-0.576 0.5127,-9.1679 c -0.0885,10e-5 -0.4035,10e-5 -0.94498,0 -0.54151,10e-5 -0.8505,10e-5 -0.92699,0 l -2.72068,9.1679 -0.17357,0.576 -0.192,0 0.0536,-0.576 0.5847,-9.1679 -2.39997,0 -0.73467,17.6398 2.01597,0 z"
             style=""
             id="path4262" />
          <path
             d="m 673.86833,1300.2023 2.315,-13.1278 -2.42397,0 -2.315,13.1278 z m 0.25923,-15.2158 2.42397,0 0.42745,-2.424 -2.42397,0 z"
             style=""
             id="path4264" />
          <path
             d="m 681.56317,1289.2345 c 0.15132,-0.01 0.2775,0.025 0.37854,0.099 0.10103,0.073 0.13299,0.2325 0.0959,0.477 l -1.83253,10.3918 2.42397,0 1.89601,-10.7518 c 0.10718,-0.5795 0.0645,-1.1425 -0.12815,-1.689 -0.19264,-0.5465 -0.60696,-0.8395 -1.24298,-0.879 -0.4457,0.047 -0.89014,0.2475 -1.33332,0.603 -0.44319,0.3555 -0.73092,0.5865 -0.86319,0.693 l 0.19468,-1.104 -2.42397,0 -2.315,13.1278 2.42397,0 c 0.15011,-0.8512 0.28204,-1.5994 0.39579,-2.2444 0.11374,-0.645 0.27357,-1.5514 0.47949,-2.7191 0.2059,-1.1677 0.52217,-2.9611 0.94879,-5.3803 0.008,-0.026 0.0979,-0.13 0.27101,-0.312 0.17309,-0.182 0.38342,-0.286 0.63101,-0.312 z"
             style=""
             id="path4266" />
          <path
             d="m 689.53924,1300.2023 2.51996,0 0.46978,-2.6639 -2.51997,0 z m 1.34196,-4.7519 1.51198,0 2.92067,-12.8879 -2.80797,0 z"
             style=""
             id="path4268" />
          <path
             d="m 694.74236,1300.2023 2.51997,0 0.46977,-2.6639 -2.51997,0 z m 1.34196,-4.7519 1.51199,0 2.92066,-12.8879 -2.80796,0 z"
             style=""
             id="path4270" />
        </g>
      </g>
    </g>
  </g>
</svg>
